<svg xmlns="http://www.w3.org/2000/svg" style="shape-rendering:geometricPrecision;text-rendering:geometricPrecision;image-rendering:optimizeQuality;fill-rule:evenodd;clip-rule:evenodd" viewBox="0 0 225 205"><path fill="#0a0a0a" d="M104.5-.5h13c8.282 3.234 15.782 7.9 22.5 14a330.952 330.952 0 0 1 20.5 32 66.74 66.74 0 0 1 10 4.5 390.057 390.057 0 0 0 16 2.5c-4.259 4.518-6.925 9.851-8 16a132.38 132.38 0 0 1-8-8.5c-1.869-1.602-3.869-2.602-6-3 3.006 6.856 7.339 12.69 13 17.5-4.522.781-8.522 2.615-12 5.5 2.131 15.789 4.297 31.622 6.5 47.5 1.884 20.263 10.05 37.43 24.5 51.5l14 8a67.885 67.885 0 0 0 14 3.5v4c-3.363 3.072-7.363 4.906-12 5.5a408.885 408.885 0 0 1-31 2c-4.889.354-9.556 1.187-14 2.5h-5c-9.001-6.264-18.834-7.598-29.5-4-14.344-12.412-30.177-14.412-47.5-6-4.16-2.949-8.826-3.782-14-2.5-8.47 2.395-15.804 6.562-22 12.5h-3c-12.593-13.787-27.593-17.12-45-10a44.144 44.144 0 0 0-2-1v-4a55.67 55.67 0 0 0 9.5-11 495.323 495.323 0 0 0 36-76 759.518 759.518 0 0 1 31-76c6.49-12.327 15.99-21.327 28.5-27Z" style="opacity:.838"/><path fill="#f6f6f6" d="M104.5 3.5a55.965 55.965 0 0 1 20 2.5 169.454 169.454 0 0 1 16 15c-6.303 2.91-12.97 4.576-20 5a149.235 149.235 0 0 1-37-1.5l-2-1c5.972-8.789 13.64-15.456 23-20Z" style="opacity:1"/><path fill="#525252" d="M141.5 23.5c3.053 1.213 5.387 3.38 7 6.5-6.912 4.695-14.579 7.528-23 8.5-15.462 3.041-30.795 2.541-46-1.5-1.786-.196-3.12-1.03-4-2.5l3.5-7a4.938 4.938 0 0 1 2.5-1c15.193 3.494 30.527 3.994 46 1.5a106.328 106.328 0 0 0 14-4.5Z" style="opacity:1"/><path fill="#f6f6f6" d="M125.5 41.5c1.699-.16 3.366.007 5 .5a3.647 3.647 0 0 0-1 1.5l4 3-2 2c1.368 1.094 2.535.76 3.5-1 .399.228.565.562.5 1a56.716 56.716 0 0 0 8 10c.065.438-.101.772-.5 1l-4-4c-1.365 1.093-1.699 2.426-1 4 1.834 1.57 2.334 3.237 1.5 5-4.195-9.096-9.695-10.096-16.5-3-5.516 9.155-5.849 18.488-1 28 1.451 1.964 3.284 3.297 5.5 4l4 2c-2.89 1.85-3.89 4.35-3 7.5-1.835.928-2.168 2.094-1 3.5-2.566 2.763-2.566 5.43 0 8-11.909 6.147-23.909 6.481-36 1 .813-1.153 1.813-1.153 3 0a181.478 181.478 0 0 0 2-21 44.834 44.834 0 0 1-10 1c1.14 3.114.474 5.947-2 8.5a4.458 4.458 0 0 1 2 1.5 187.991 187.991 0 0 0-2 3c-1.212-.73-2.212-1.73-3-3l-1 1a21.032 21.032 0 0 1 2 7c-.175 2.121.159 4.121 1 6 1.975 7.193 6.641 12.693 14 16.5 6.991 1.946 13.991 1.946 21 0 1.442-.377 2.442-1.21 3-2.5a92.741 92.741 0 0 0 1 7c-2.335 2.697-2.335 5.197 0 7.5a731.766 731.766 0 0 0-5 10.5 4.934 4.934 0 0 0-3 .5l1 1a18.473 18.473 0 0 0-2 3.5c-3.542-.313-6.875.021-10 1-5.129.897-9.796 2.897-14 6l-1-2a655.746 655.746 0 0 0 3-19c1.137-5.357 1.137-10.524 0-15.5a10.526 10.526 0 0 0-3-2.5c-.822-2.228-2.155-2.895-4-2-1.145 1.276-1.145 2.609 0 4l-3 2.5 1 1c-.864 2.071-2.197 3.738-4 5 5.518 2.796 5.184 4.796-1 6 1.016.519 1.682 1.353 2 2.5a108.414 108.414 0 0 0-7 15.5c1.358 2.498 1.691 4.998 1 7.5.825.886 1.825 1.219 3 1a4.934 4.934 0 0 1 3 .5c-2.865.183-5.531.683-8 1.5-6.215 1.692-11.382 5.025-15.5 10a296.33 296.33 0 0 1 7.5-52c1.192-1.066.859-1.899-1-2.5 1.333-1 1.333-2 0-3l-4 1c2.418-2.164 4.085-4.831 5-8-1.41-.368-2.41-1.201-3-2.5 1.14-.925 1.14-1.759 0-2.5 1.41-.368 2.41-1.201 3-2.5-1.333-1-1.333-2 0-3-.774-1.211-1.607-1.211-2.5 0l-1-3c-.2 1.902-1.032 3.402-2.5 4.5a4.458 4.458 0 0 1 2 1.5 42.49 42.49 0 0 0-5.5 11c-.914-1.154-1.747-.987-2.5.5l2 1c-2.242 3.28-3.575 6.947-4 11-.06 1.711.606 3.044 2 4a15.457 15.457 0 0 0-5 3c2.391 1.309 2.391 2.309 0 3l1 1a15.83 15.83 0 0 0-3.5 5.5c-1.008.482-2.175.648-3.5.5.561 1.676 1.561 3.009 3 4-2.025 1.194-2.359 2.694-1 4.5-2.442 4.239-3.442 8.572-3 13-.466 1.701-.466 3.201 0 4.5a2.429 2.429 0 0 1-2 .5 37.297 37.297 0 0 0-14-.5 217.888 217.888 0 0 0-18 7.5 52.573 52.573 0 0 0 8.5-11 530.333 530.333 0 0 1 15-27c12.66-32.657 25.327-65.323 38-98l6.5-13 2-1c4.342 1.174 8.676 2.34 13 3.5 12.352.704 24.685.537 37-.5Z" style="opacity:1"/><path fill="#d7d7d7" d="M149.5 36.5c.065.438-.101.772-.5 1-1.465-2.286-2.299-1.786-2.5 1.5 2.367 3.75 2.034 7.416-1 11 1.333 1.333 1.333 2.667 0 4 1.499.838 1.832 1.672 1 2.5-3.125-3.465-6.792-6.132-11-8 .065-.438-.101-.772-.5-1-.965 1.76-2.132 2.094-3.5 1l2-2-4-3a3.647 3.647 0 0 1 1-1.5 12.935 12.935 0 0 0-5-.5c7.59-1.583 15.09-3.916 22.5-7 1.03.336 1.53 1.003 1.5 2Z" style="opacity:1"/><path fill="#191919" d="M135.5 48.5c4.208 1.868 7.875 4.535 11 8 .098 2.748-.902 3.414-3 2a56.716 56.716 0 0 1-8-10Z" style="opacity:1"/><path fill="#202020" d="M88.5 52.5c1.175-.219 2.175.114 3 1-4.858 3.604-10.192 5.771-16 6.5 4.102-3.046 8.435-5.546 13-7.5Z" style="opacity:1"/><path fill="#545454" d="M160.5 45.5c5.901 6.158 13.234 8.991 22 8.5a29.508 29.508 0 0 0-6 9.5 76.911 76.911 0 0 0-14.5-12 15.83 15.83 0 0 0-3.5-5.5 2.427 2.427 0 0 1 2-.5Z" style="opacity:1"/><path fill="#151515" d="M139.5 64.5c1.378 6.988 1.211 13.988-.5 21-1.804 5.644-5.638 8.311-11.5 8-2.216-.703-4.049-2.036-5.5-4-4.849-9.512-4.516-18.845 1-28 6.805-7.096 12.305-6.096 16.5 3Z" style="opacity:1"/><path fill="#f1f1f1" d="M134.5 76.5c1.719.522 3.052 1.522 4 3v1c-1.279-1.468-2.946-2.135-5-2 .328 5.496-2.006 9.33-7 11.5 2.597.78 2.597 1.28 0 1.5-3.107-2.54-4.94-5.873-5.5-10-.952-5.862-.285-11.528 2-17 2.745-5.727 6.745-7.06 12-4-.746 1.82-2.079 3.487-4 5-1.481 4.681-.314 8.348 3.5 11Z" style="opacity:1"/><path fill="#555" d="M158.5 49.5a131.017 131.017 0 0 0 13 23l-6 4a622.485 622.485 0 0 0-7-27Z" style="opacity:1"/><path fill="#c3c3c3" d="M133.5 65.5c1.846-.278 3.18.389 4 2a16.08 16.08 0 0 1-2.5 5l-1.5-1.5c.638-1.707.638-3.54 0-5.5Z" style="opacity:1"/><path fill="#666" d="M134.5 76.5h5c.237 1.291-.096 2.291-1 3-.948-1.478-2.281-2.478-4-3Z" style="opacity:1"/><path fill="#191919" d="M90.5 61.5c8.852.02 13.185 4.52 13 13.5.117 5.371-1.383 10.204-4.5 14.5-5.748 6.56-11.414 6.56-17 0-4.697-11.735-1.864-21.069 8.5-28Z" style="opacity:1"/><path fill="#dfdfdf" d="M96.5 74.5c3.174.452 3.507 1.452 1 3-.886-.825-1.219-1.825-1-3Z" style="opacity:1"/><path fill="#d7d7d7" d="M97.5 69.5c2.412.194 3.412 1.527 3 4-3.454.233-4.454-1.1-3-4Z" style="opacity:1"/><path fill="#f7f7f7" d="M93.5 76.5c-.814 2.131-1.314 4.464-1.5 7l-5 3c-.783 1.933-.283 3.433 1.5 4.5-.228.399-.562.565-1 .5-2.952-.859-4.785-2.859-5.5-6-2.051-8.85.449-16.016 7.5-21.5 3.93-1.138 7.264-.305 10 2.5-4.547 1.756-6.547 5.09-6 10Z" style="opacity:1"/><path fill="#dadada" d="M93.5 76.5c1.712 3.21 4.379 5.044 8 5.5-1.488 4.325-4.154 7.659-8 10-2.212.79-4.212.623-6-.5.438.065.772-.101 1-.5-1.783-1.067-2.283-2.567-1.5-4.5l5-3c.186-2.536.686-4.869 1.5-7Z" style="opacity:1"/><path fill="#cbcbcb" d="M138.5 80.5c-.827 5.98-3.993 9.98-9.5 12-1.07-.028-1.903-.361-2.5-1 2.597-.22 2.597-.72 0-1.5 4.994-2.17 7.328-6.004 7-11.5 2.054-.135 3.721.532 5 2Z" style="opacity:1"/><path fill="#2a2a2a" d="M148.5 88.5a5.727 5.727 0 0 1-1 3 25.136 25.136 0 0 0-4.5 4c.772-2.964 2.605-5.298 5.5-7Z" style="opacity:1"/><path fill="#212121" d="m72.5 94.5-4 1c1.414-1.554 3.08-2.888 5-4l1 .5c-.88.708-1.547 1.542-2 2.5Z" style="opacity:1"/><path fill="#4f4f4f" d="M72.5 97.5c-1.517.01-2.684.677-3.5 2-.617-.95-.45-1.782.5-2.5-1.238.077-2.238-.09-3-.5.457-.797 1.124-1.13 2-1l4-1c1.267-.587 2.267-.587 3 0-1.27.788-2.27 1.788-3 3Z" style="opacity:1"/><path fill="#353535" d="M72.5 97.5a19.215 19.215 0 0 0 6.5-3l.5 1c-2.868 2.1-5.868 3.6-9 4.5.88-.708 1.547-1.542 2-2.5Z" style="opacity:1"/><path fill="#e7e7e7" d="M91.5 115.5h-1c-2.713-1.714-4.713-4.047-6-7 .64-.982 1.308-1.982 2-3a4.458 4.458 0 0 0-2-1.5c2.474-2.553 3.14-5.386 2-8.5 3.38.04 6.714-.293 10-1a181.478 181.478 0 0 1-2 21c-1.187-1.153-2.187-1.153-3 0Z" style="opacity:1"/><path fill="#d9d9d9" d="M131.5 95.5c1.96 3.422 1.96 7.089 0 11 .079 1.628.412 3.295 1 5a18.924 18.924 0 0 1-5 3c-2.566-2.57-2.566-5.237 0-8-1.168-1.406-.835-2.572 1-3.5-.89-3.15.11-5.65 3-7.5Z" style="opacity:1"/><path fill="#0b0b0b" d="M138.5 112.5a3605.722 3605.722 0 0 1-9 12c-20.297 16.333-35.964 12.666-47-11a21.032 21.032 0 0 0-2-7l1-1c.788 1.27 1.788 2.27 3 3 1.287 2.953 3.287 5.286 6 7h1c12.091 5.481 24.091 5.147 36-1a18.924 18.924 0 0 0 5-3c3.25-1.743 6.084-4.077 8.5-7 .067 2.887-.767 5.554-2.5 8Z" style="opacity:1"/><path fill="#858585" d="M163.5 99.5a1518.57 1518.57 0 0 1 5 31c.059 2.549-.941 4.549-3 6-.564 3.281-.564 6.615 0 10h-3a131.683 131.683 0 0 1 0-15 198.656 198.656 0 0 0-4-11.5c1.423-1.412 1.256-2.579-.5-3.5a60.931 60.931 0 0 0-.5 11c.319 4.863-.014 9.53-1 14a441.968 441.968 0 0 0-1.5-42 60.931 60.931 0 0 0-.5 11 628.282 628.282 0 0 1 0-28c2.442-.146 3.109.687 2 2.5l4 6a3.944 3.944 0 0 0-1 2c2.393 4.496 3.56 9.329 3.5 14.5.497-2.646.664-5.313.5-8Z" style="opacity:1"/><path fill="#acacac" d="M149.5 36.5c1.767 2.292 2.767 4.958 3 8 .065.438-.101.772-.5 1-.669-2.528-1.502-2.528-2.5 0a18.083 18.083 0 0 0 2 3.5c-1.504 1.337-2.504 3.004-3 5 1.683 3.892 2.683 8.059 3 12.5-1.522 1.656-1.189 2.823 1 3.5-1.491 2.022-1.158 3.688 1 5-1.333 1-1.333 2 0 3a14.833 14.833 0 0 0-4 3.5c.841 2.728 1.841 4.728 3 6-1.599-.268-2.932.066-4 1-2.895 1.702-4.728 4.036-5.5 7a25.136 25.136 0 0 1 4.5-4v2c-1.216 1.98-2.049 3.98-2.5 6a32.318 32.318 0 0 0 4.5-6c.863-.963 1.53-.963 2 0l-3 4c1.333 2.333 1.333 4.667 0 7 .346 1.196.846 1.196 1.5 0a66.87 66.87 0 0 0 1.5 5.5c-.259 1.261-.926 2.261-2 3a95.945 95.945 0 0 1 1 17.5 33.242 33.242 0 0 0-6 3.5 4.457 4.457 0 0 1 2 1.5c.665 1.601.999 3.101 1 4.5a9.454 9.454 0 0 0-2.5 1.5 39.027 39.027 0 0 0-4.5-4.5l1-1c-2.544-2.222-2.544-4.389 0-6.5l-2-3c1.6-4.508 2.267-9.008 2-13.5-1.269.109-2.269-.058-3-.5 1.733-2.446 2.567-5.113 2.5-8-2.416 2.923-5.25 5.257-8.5 7-.588-1.705-.921-3.372-1-5 1.96-3.911 1.96-7.578 0-11l-4-2c5.862.311 9.696-2.356 11.5-8 1.711-7.012 1.878-14.012.5-21 .834-1.763.334-3.43-1.5-5-.699-1.574-.365-2.907 1-4l4 4c.399-.228.565-.562.5-1 2.098 1.414 3.098.748 3-2 .832-.828.499-1.662-1-2.5 1.333-1.333 1.333-2.667 0-4 3.034-3.584 3.367-7.25 1-11 .201-3.286 1.035-3.786 2.5-1.5.399-.228.565-.562.5-1Z" style="opacity:1"/><path fill="#3a3a3a" d="M149.5 93.5a32.318 32.318 0 0 1-4.5 6c.451-2.02 1.284-4.02 2.5-6 .896-1.006 1.562-1.006 2 0Z" style="opacity:1"/><path fill="#242424" d="M145.5 85.5a2.427 2.427 0 0 1 2 .5l-7.5 9.5c-.315-1.408.018-2.741 1-4 2.102-1.595 3.602-3.595 4.5-6Z" style="opacity:1"/><path fill="#414141" d="M156.5 141.5h-1c-.994-10.153-1.328-20.486-1-31a60.931 60.931 0 0 1 .5-11 441.968 441.968 0 0 1 1.5 42Z" style="opacity:1"/><path fill="#a0a0a0" d="M90.5 115.5c1.074 1.385 2.407 2.551 4 3.5l-1 1c11.344 2.382 23.344.882 36-4.5l1 2c-1.385 2.205-3.385 3.705-6 4.5-11.922 3.922-23.422 3.089-34.5-2.5a11.357 11.357 0 0 0-1.5-3.5 2.429 2.429 0 0 1 2-.5Z" style="opacity:1"/><path fill="#d2d2d2" d="M82.5 113.5c11.036 23.666 26.703 27.333 47 11 1.006.438 1.006 1.104 0 2a14.698 14.698 0 0 0-3.5 3c-.093 2.507-.926 4.674-2.5 6.5 1.28 5.467 1.28 10.967 0 16.5a206.397 206.397 0 0 0-4.5 10c-1.699.906-3.533 1.239-5.5 1a18.473 18.473 0 0 1 2-3.5l-1-1a4.934 4.934 0 0 1 3-.5 731.766 731.766 0 0 1 5-10.5c-2.335-2.303-2.335-4.803 0-7.5a92.741 92.741 0 0 1-1-7c-16.682 5.984-29.349 1.318-38-14-.841-1.879-1.175-3.879-1-6Z" style="opacity:1"/><path fill="#222" d="M83.5 119.5c8.651 15.318 21.318 19.984 38 14-.558 1.29-1.558 2.123-3 2.5-7.009 1.946-14.009 1.946-21 0-7.359-3.807-12.025-9.307-14-16.5Z" style="opacity:1"/><path fill="#989898" d="M152.5 44.5c3.86 6.396 6.36 13.396 7.5 21a195.682 195.682 0 0 1 3.5 34 32.462 32.462 0 0 1-.5 8c.06-5.171-1.107-10.004-3.5-14.5a3.944 3.944 0 0 1 1-2l-4-6c1.109-1.813.442-2.646-2-2.5a628.282 628.282 0 0 0 0 28c-.328 10.514.006 20.847 1 31a245.154 245.154 0 0 0 3 29c.039 1.859-.794 3.192-2.5 4-.617-.949-.451-1.782.5-2.5-2.276-1.03-2.943-2.53-2-4.5a7.293 7.293 0 0 0-2-3 25.879 25.879 0 0 0-1 10 84.902 84.902 0 0 0-13 .5c-1.633.48-2.966 1.313-4 2.5a63.655 63.655 0 0 1-2-17c1.172-11.367 2.338-22.7 3.5-34-4.515 15.741-6.181 31.741-5 48-4.669-5.579-10.502-8.912-17.5-10 2.747.313 5.414-.02 8-1a76.716 76.716 0 0 0 3.5-6c.467-5.24 1.3-10.407 2.5-15.5-1.011-3.041-.678-5.708 1-8-.807-2.6-.14-4.934 2-7-.228-.399-.562-.565-1-.5 1.006-.896 1.006-1.562 0-2 3.031-4.024 6.031-8.024 9-12 .731.442 1.731.609 3 .5.267 4.492-.4 8.992-2 13.5l2 3c-2.544 2.111-2.544 4.278 0 6.5l-1 1a39.027 39.027 0 0 1 4.5 4.5 9.454 9.454 0 0 1 2.5-1.5c-.001-1.399-.335-2.899-1-4.5a4.457 4.457 0 0 0-2-1.5 33.242 33.242 0 0 1 6-3.5 95.945 95.945 0 0 0-1-17.5c1.074-.739 1.741-1.739 2-3a66.87 66.87 0 0 1-1.5-5.5c-.654 1.196-1.154 1.196-1.5 0 1.333-2.333 1.333-4.667 0-7l3-4c-.47-.963-1.137-.963-2 0-.438-1.006-1.104-1.006-2 0v-2a5.727 5.727 0 0 0 1-3c1.068-.934 2.401-1.268 4-1-1.159-1.272-2.159-3.272-3-6a14.833 14.833 0 0 1 4-3.5c-1.333-1-1.333-2 0-3-2.158-1.312-2.491-2.978-1-5-2.189-.677-2.522-1.844-1-3.5-.317-4.441-1.317-8.608-3-12.5.496-1.996 1.496-3.663 3-5a18.083 18.083 0 0 1-2-3.5c.998-2.528 1.831-2.528 2.5 0 .399-.228.565-.562.5-1Z" style="opacity:1"/><path fill="#dadada" d="M63.5 134.5c.065-.438-.101-.772-.5-1a111.7 111.7 0 0 0-5.5 22c-.617-.111-1.117-.444-1.5-1a14.827 14.827 0 0 1-6.5 2c-.213 2.975-1.213 5.642-3 8 1.05 1.602.383 2.435-2 2.5-.054 2.059.113 4.226.5 6.5a8.908 8.908 0 0 0-3 4c-.67-.752-1.504-1.086-2.5-1-.442-4.428.558-8.761 3-13-1.359-1.806-1.025-3.306 1-4.5-1.439-.991-2.439-2.324-3-4 1.325.148 2.492-.018 3.5-.5a15.83 15.83 0 0 1 3.5-5.5l-1-1c2.391-.691 2.391-1.691 0-3a15.457 15.457 0 0 1 5-3c-1.394-.956-2.06-2.289-2-4 .425-4.053 1.758-7.72 4-11l-2-1c.753-1.487 1.586-1.654 2.5-.5a42.49 42.49 0 0 1 5.5-11 4.458 4.458 0 0 0-2-1.5c1.468-1.098 2.3-2.598 2.5-4.5l1 3c.893-1.211 1.726-1.211 2.5 0-1.333 1-1.333 2 0 3-.59 1.299-1.59 2.132-3 2.5 1.14.741 1.14 1.575 0 2.5.59 1.299 1.59 2.132 3 2.5-.915 3.169-2.582 5.836-5 8l4-1c1.333 1 1.333 2 0 3 1.859.601 2.192 1.434 1 2.5Z" style="opacity:1"/><path fill="#626262" d="M165.5 180.5c-5.402-12.327-8.402-25.327-9-39 .986-4.47 1.319-9.137 1-14 .617-.111 1.117-.444 1.5-1a9.62 9.62 0 0 1 1.5 4.5 83.841 83.841 0 0 1-1 12.5 4.457 4.457 0 0 0 1.5 2c-.23 11.514 1.603 22.68 5.5 33.5-.07.765-.403 1.265-1 1.5Z" style="opacity:1"/><path fill="#d8d8d8" d="M88.5 131.5a37.625 37.625 0 0 0-2.5 12c-.897 2.64-2.397 4.807-4.5 6.5 1.267 1.796 1.267 3.629 0 5.5a4.458 4.458 0 0 0 2 1.5 47.225 47.225 0 0 0-4 6c-.007 1.583.326 3.249 1 5-2.003 1.819-3.336 3.985-4 6.5-1.175.219-2.175-.114-3-1 .691-2.502.358-5.002-1-7.5a108.414 108.414 0 0 1 7-15.5c-.318-1.147-.984-1.981-2-2.5 6.184-1.204 6.518-3.204 1-6 1.803-1.262 3.136-2.929 4-5l-1-1 3-2.5c-1.145-1.391-1.145-2.724 0-4 1.845-.895 3.178-.228 4 2Z" style="opacity:1"/><path fill="#151515" d="M134.5 177.5c.342.838 1.008 1.172 2 1 .342.838 1.008 1.172 2 1a86.818 86.818 0 0 0-5.5 3 208.311 208.311 0 0 0-4.5-5c-2.137-3.473-5.137-5.806-9-7-15.001-6.84-27.168-3.506-36.5 10a26.715 26.715 0 0 0-7-1c-3.782-.121-7.282.546-10.5 2-5.093 1.925-8.76 5.425-11 10.5a4.934 4.934 0 0 1-3 .5c-7.242-5.364-15.408-8.364-24.5-9a26.676 26.676 0 0 0-12.5 2.5c-2.609.864-4.275 2.03-5 3.5-1.59 1.121-3.256.954-5-.5.228-.399.562-.565 1-.5a217.888 217.888 0 0 1 18-7.5c4.72-.717 9.386-.55 14 .5 4.884 1.47 9.384 3.804 13.5 7 3-10.837 5.167-21.837 6.5-33a111.7 111.7 0 0 1 5.5-22c.399.228.565.562.5 1a296.33 296.33 0 0 0-7.5 52c4.118-4.975 9.285-8.308 15.5-10a36.877 36.877 0 0 0 12-1 49.159 49.159 0 0 0 3.5-9 352.002 352.002 0 0 0 4-30 84.94 84.94 0 0 1 .5 13 655.746 655.746 0 0 1-3 19l1 2c4.204-3.103 8.871-5.103 14-6h10c6.998 1.088 12.831 4.421 17.5 10-1.181-16.259.485-32.259 5-48-1.162 11.3-2.328 22.633-3.5 34a63.655 63.655 0 0 0 2 17Z" style="opacity:1"/><path fill="#646464" d="M171.5 143.5a97.563 97.563 0 0 0 11 24 14.698 14.698 0 0 1-3.5-3c-.658 1.608-.158 2.775 1.5 3.5a341.749 341.749 0 0 0-2 9.5c.777 2.039 1.943 2.705 3.5 2 .495 1.973.662 3.973.5 6h-5c-2.324-1.359-3.99-3.359-5-6 .71-2.586-.29-4.586-3-6 .427-2.514.761-5.014 1-7.5a64.898 64.898 0 0 1-3-17.5c-.09-4.039 1.077-4.706 3.5-2a4.934 4.934 0 0 0 .5-3Z" style="opacity:1"/><path fill="#b6b6b6" d="M129.5 126.5c.438-.065.772.101 1 .5-2.14 2.066-2.807 4.4-2 7-1.678 2.292-2.011 4.959-1 8a110.127 110.127 0 0 0-2.5 15.5 76.716 76.716 0 0 1-3.5 6 16.873 16.873 0 0 1-8 1h-10c3.125-.979 6.458-1.313 10-1 1.967.239 3.801-.094 5.5-1a206.397 206.397 0 0 1 4.5-10c1.28-5.533 1.28-11.033 0-16.5 1.574-1.826 2.407-3.993 2.5-6.5a14.698 14.698 0 0 1 3.5-3Z" style="opacity:1"/><path fill="#bebebe" d="M88.5 131.5a10.526 10.526 0 0 1 3 2.5c1.137 4.976 1.137 10.143 0 15.5a84.94 84.94 0 0 0-.5-13 352.002 352.002 0 0 1-4 30 49.159 49.159 0 0 1-3.5 9 36.877 36.877 0 0 1-12 1c2.469-.817 5.135-1.317 8-1.5a4.934 4.934 0 0 0-3-.5c.664-2.515 1.997-4.681 4-6.5-.674-1.751-1.007-3.417-1-5a47.225 47.225 0 0 1 4-6 4.458 4.458 0 0 1-2-1.5c1.267-1.871 1.267-3.704 0-5.5 2.103-1.693 3.603-3.86 4.5-6.5a37.625 37.625 0 0 1 2.5-12Z" style="opacity:1"/><path fill="#7a7a7a" d="M168.5 130.5a188.414 188.414 0 0 1 3 13 4.934 4.934 0 0 1-.5 3c-2.423-2.706-3.59-2.039-3.5 2a64.898 64.898 0 0 0 3 17.5 104.512 104.512 0 0 1-1 7.5c2.71 1.414 3.71 3.414 3 6 1.01 2.641 2.676 4.641 5 6-1.915-.284-3.581.049-5 1-1.322-.17-2.489.163-3.5 1a17.341 17.341 0 0 1-3.5-7c.597-.235.93-.735 1-1.5-3.897-10.82-5.73-21.986-5.5-33.5a4.457 4.457 0 0 1-1.5-2c.65-4.198.983-8.364 1-12.5a9.62 9.62 0 0 0-1.5-4.5c-.383.556-.883.889-1.5 1a60.931 60.931 0 0 1 .5-11c1.756.921 1.923 2.088.5 3.5a198.656 198.656 0 0 1 4 11.5 131.683 131.683 0 0 0 0 15h3c-.564-3.385-.564-6.719 0-10 2.059-1.451 3.059-3.451 3-6Z" style="opacity:1"/><path fill="#4e4e4e" d="M182.5 167.5a326.819 326.819 0 0 0 15 15.5c7.149 4.411 14.816 7.411 23 9a129.67 129.67 0 0 1-36-5 72.367 72.367 0 0 0-12-.5c1.419-.951 3.085-1.284 5-1h5a18.453 18.453 0 0 0-.5-6c-1.557.705-2.723.039-3.5-2a341.749 341.749 0 0 1 2-9.5c-1.658-.725-2.158-1.892-1.5-3.5a14.698 14.698 0 0 0 3.5 3Z" style="opacity:1"/><path fill="#bebebe" d="M57.5 155.5a222.165 222.165 0 0 1-6.5 33c-4.116-3.196-8.616-5.53-13.5-7a2.429 2.429 0 0 0 2-.5c-.466-1.299-.466-2.799 0-4.5.996-.086 1.83.248 2.5 1a8.908 8.908 0 0 1 3-4c-.387-2.274-.554-4.441-.5-6.5 2.383-.065 3.05-.898 2-2.5 1.787-2.358 2.787-5.025 3-8a14.827 14.827 0 0 0 6.5-2c.383.556.883.889 1.5 1Z" style="opacity:1"/><path fill="#7f7f7f" d="M158.5 170.5a41.278 41.278 0 0 1 3.5 13c-7.627-6.836-16.127-8.503-25.5-5-.992.172-1.658-.162-2-1 1.034-1.187 2.367-2.02 4-2.5a84.902 84.902 0 0 1 13-.5 25.879 25.879 0 0 1 1-10 7.293 7.293 0 0 1 2 3c-.943 1.97-.276 3.47 2 4.5-.951.718-1.117 1.551-.5 2.5 1.706-.808 2.539-2.141 2.5-4Z" style="opacity:1"/><path fill="#636363" d="M119.5 170.5c-2.356 3.551-5.023 7.051-8 10.5l2 1c-2.016.197-4.016 1.197-6 3 1.237.232 2.237.732 3 1.5h-9c-1.369-1.568-2.37-3.401-3-5.5 2.391-1.309 2.391-2.309 0-3l1-1c-2.387-.976-3.554-2.809-3.5-5.5-3.417 1.928-6.25 4.928-8.5 9-1.661 2.945-2.828 6.279-3.5 10-8.72-3.316-16.887-2.316-24.5 3a44.043 44.043 0 0 0-1-2l4-5a3.646 3.646 0 0 0-1-1.5l6-2.5c-.457-.798-1.124-1.131-2-1 3.218-1.454 6.718-2.121 10.5-2 2.424.03 4.757.363 7 1 9.332-13.506 21.499-16.84 36.5-10Z" style="opacity:1"/><path fill="#7c7c7c" d="M101.5 186.5a110.075 110.075 0 0 0-14 4c-.137-3.053-.137-6.386 0-10 2.25-4.072 5.083-7.072 8.5-9-.054 2.691 1.113 4.524 3.5 5.5l-1 1c2.391.691 2.391 1.691 0 3 .63 2.099 1.631 3.932 3 5.5Z" style="opacity:1"/><path fill="#797979" d="M119.5 170.5c3.863 1.194 6.863 3.527 9 7-.951 5.55-1.284 10.884-1 16-5.058-3.689-10.725-6.023-17-7-.763-.768-1.763-1.268-3-1.5 1.984-1.803 3.984-2.803 6-3l-2-1c2.977-3.449 5.644-6.949 8-10.5Z" style="opacity:1"/><path fill="#5c5c5c" d="M51.5 192.5c-1.843 2.353-3.177 5.02-4 8-10.717-9.953-23.383-13.62-38-11 .725-1.47 2.391-2.636 5-3.5a26.676 26.676 0 0 1 12.5-2.5c9.092.636 17.258 3.636 24.5 9Z" style="opacity:1"/><path fill="#636363" d="M128.5 177.5a208.311 208.311 0 0 1 4.5 5 86.818 86.818 0 0 1 5.5-3c5.427-.518 10.427.482 15 3 .228 1.169-.272 2.503-1.5 4-1.243-.836-2.41-.503-3.5 1a14.72 14.72 0 0 0 5 1.5c-2.732 1.654-4.065 4.154-4 7.5-5.703-.125-11.37.208-17 1 .043-4.393.209-8.726.5-13-1.891 3.371-3.058 7.038-3.5 11-1.022-.355-1.689-1.022-2-2-.284-5.116.049-10.45 1-16Z" style="opacity:1"/><path fill="#757575" d="M153.5 182.5c4.38 2.2 8.38 5.033 12 8.5a45.296 45.296 0 0 0 7-.5h3c.322 2.222-.345 4.056-2 5.5.837 1.011 1.17 2.178 1 3.5a46.86 46.86 0 0 1-9 2c-.113-2.549.554-4.882 2-7l-1-1a22.598 22.598 0 0 0-4 8 36.128 36.128 0 0 0-13-5c-.065-3.346 1.268-5.846 4-7.5a14.72 14.72 0 0 1-5-1.5c1.09-1.503 2.257-1.836 3.5-1 1.228-1.497 1.728-2.831 1.5-4Z" style="opacity:1"/><path fill="#818181" d="M65.5 181.5c.876-.131 1.543.202 2 1l-6 2.5c.457.414.79.914 1 1.5l-4 5c.363.683.696 1.35 1 2a2968.346 2968.346 0 0 0-7 6l-1-4c-.65 2.347-1.984 4.014-4 5 .823-2.98 2.157-5.647 4-8a4.934 4.934 0 0 0 3-.5c2.24-5.075 5.907-8.575 11-10.5Z" style="opacity:1"/><path fill="#585858" d="M172.5 190.5c5.485-1.152 11.151-1.318 17-.5 6.589.936 12.922 2.436 19 4.5-2.138.203-3.805 1.203-5 3a4.457 4.457 0 0 1-1.5-2c-.725 1.658-1.892 2.158-3.5 1.5 1.196-.654 1.196-1.154 0-1.5-2.396 1.567-5.063 2.4-8 2.5 6.658.5 13.325.666 20 .5-11.822.995-23.822 1.328-36 1 .17-1.322-.163-2.489-1-3.5 1.655-1.444 2.322-3.278 2-5.5h-3Z" style="opacity:1"/><path fill="#7d7d7d" d="M208.5 194.5c11.693-.298 12.36 1.035 2 4-6.675.166-13.342 0-20-.5 2.937-.1 5.604-.933 8-2.5 1.196.346 1.196.846 0 1.5 1.608.658 2.775.158 3.5-1.5a4.457 4.457 0 0 0 1.5 2c1.195-1.797 2.862-2.797 5-3Z" style="opacity:1"/></svg>